<svg xmlns="http://www.w3.org/2000/svg" viewBox="0 0 1200 320" role="img" aria-label="GrindRoom banner">
  <defs>
    <linearGradient id="bg" x1="0%" y1="0%" x2="100%" y2="100%">
      <stop offset="0%" stop-color="#0e0e0e"/>
      <stop offset="55%" stop-color="#141414"/>
      <stop offset="100%" stop-color="#1a2200"/>
    </linearGradient>
    <linearGradient id="lime" x1="0%" y1="0%" x2="100%" y2="0%">
      <stop offset="0%" stop-color="#C8F135"/>
      <stop offset="100%" stop-color="#9BC41A"/>
    </linearGradient>
    <filter id="glow" x="-50%" y="-50%" width="200%" height="200%">
      <feGaussianBlur stdDeviation="18" result="blur"/>
      <feMerge>
        <feMergeNode in="blur"/>
        <feMergeNode in="SourceGraphic"/>
      </feMerge>
    </filter>
    <pattern id="grid" width="40" height="40" patternUnits="userSpaceOnUse">
      <path d="M 40 0 L 0 0 0 40" fill="none" stroke="#C8F135" stroke-opacity="0.06" stroke-width="1"/>
    </pattern>
  </defs>
  <rect width="1200" height="320" fill="url(#bg)"/>
  <rect width="1200" height="320" fill="url(#grid)"/>
  <circle cx="980" cy="70" r="120" fill="#C8F135" opacity="0.08" filter="url(#glow)"/>
  <circle cx="180" cy="260" r="90" fill="#C8F135" opacity="0.05"/>

  <!-- Dumbbell icon -->
  <g transform="translate(88,108)" fill="none" stroke="url(#lime)" stroke-width="10" stroke-linecap="round">
    <rect x="0" y="18" width="18" height="44" rx="4" fill="#C8F135" stroke="none"/>
    <rect x="102" y="18" width="18" height="44" rx="4" fill="#C8F135" stroke="none"/>
    <line x1="18" y1="40" x2="102" y2="40" stroke-width="12"/>
  </g>

  <text x="150" y="138" fill="#ffffff" font-family="Segoe UI, Inter, system-ui, sans-serif" font-size="58" font-weight="800" letter-spacing="-2">
    Grind<tspan fill="url(#lime)">Room</tspan>
  </text>
  <text x="152" y="178" fill="#888888" font-family="Segoe UI, Inter, system-ui, sans-serif" font-size="20" font-weight="500">
    Log workouts · Build streaks · Compete with your squad
  </text>

  <!-- Streak flame -->
  <g transform="translate(1010,118)">
    <path d="M20 70 C20 42 34 34 40 10 C46 30 54 30 58 46 C64 28 78 24 80 52 C92 48 98 64 98 78 C98 102 78 118 58 118 C38 118 20 102 20 70Z" fill="#C8F135" opacity="0.9"/>
    <path d="M42 92 C42 78 50 74 54 58 C58 70 64 70 66 80 C72 76 76 84 76 92 C76 104 66 112 56 112 C46 112 42 102 42 92Z" fill="#0e0e0e"/>
  </g>

  <!-- Progress arc -->
  <path d="M 720 250 A 70 70 0 1 1 860 250" fill="none" stroke="#2A2A2A" stroke-width="12" stroke-linecap="round"/>
  <path d="M 720 250 A 70 70 0 0 1 860 250" fill="none" stroke="url(#lime)" stroke-width="12" stroke-linecap="round"/>
  <text x="790" y="248" text-anchor="middle" fill="#ffffff" font-family="Segoe UI, Inter, system-ui, sans-serif" font-size="28" font-weight="800">5/5</text>
  <text x="790" y="272" text-anchor="middle" fill="#666666" font-family="Segoe UI, Inter, system-ui, sans-serif" font-size="12" font-weight="600">DAILY GOAL</text>
</svg>