<svg xmlns="http://www.w3.org/2000/svg" viewBox="0 0 1200 300" role="img" aria-label="GrindRoom banner">
  <defs>
    <linearGradient id="bg" x1="0%" y1="0%" x2="100%" y2="100%">
      <stop offset="0%" stop-color="#0e0e0e"/>
      <stop offset="55%" stop-color="#141414"/>
      <stop offset="100%" stop-color="#1a2200"/>
    </linearGradient>
    <linearGradient id="lime" x1="0%" y1="0%" x2="100%" y2="0%">
      <stop offset="0%" stop-color="#C8F135"/>
      <stop offset="100%" stop-color="#9BC41A"/>
    </linearGradient>
    <filter id="glow" x="-50%" y="-50%" width="200%" height="200%">
      <feGaussianBlur stdDeviation="18" result="blur"/>
      <feMerge>
        <feMergeNode in="blur"/>
        <feMergeNode in="SourceGraphic"/>
      </feMerge>
    </filter>
    <pattern id="grid" width="40" height="40" patternUnits="userSpaceOnUse">
      <path d="M 40 0 L 0 0 0 40" fill="none" stroke="#C8F135" stroke-opacity="0.06" stroke-width="1"/>
    </pattern>
  </defs>

  <rect width="1200" height="300" fill="url(#bg)"/>
  <rect width="1200" height="300" fill="url(#grid)"/>
  <circle cx="980" cy="60" r="110" fill="#C8F135" opacity="0.08" filter="url(#glow)"/>
  <circle cx="160" cy="250" r="80" fill="#C8F135" opacity="0.05"/>

  <!-- Left: icon + text block -->
  <g transform="translate(72, 68)">
    <!-- Dumbbell — aligned to title cap-height, not overlapping text -->
    <g transform="translate(0, 6)" fill="none" stroke="url(#lime)" stroke-width="8" stroke-linecap="round">
      <rect x="0" y="14" width="14" height="34" rx="3" fill="#C8F135" stroke="none"/>
      <rect x="78" y="14" width="14" height="34" rx="3" fill="#C8F135" stroke="none"/>
      <line x1="14" y1="31" x2="78" y2="31" stroke-width="10"/>
    </g>

    <!-- Title row -->
    <text x="108" y="46" fill="#ffffff" font-family="Segoe UI, Inter, system-ui, sans-serif" font-size="52" font-weight="800" letter-spacing="-2">
      Grind<tspan fill="url(#lime)">Room</tspan>
    </text>

    <!-- Subtitle — two lines, clear gap below title -->
    <text x="108" y="88" fill="#888888" font-family="Segoe UI, Inter, system-ui, sans-serif" font-size="17" font-weight="500">
      Log workouts · Build streaks
    </text>
    <text x="108" y="114" fill="#888888" font-family="Segoe UI, Inter, system-ui, sans-serif" font-size="17" font-weight="500">
      Compete with your squad
    </text>
  </g>

  <!-- Streak flame -->
  <g transform="translate(1010, 88)">
    <path d="M20 70 C20 42 34 34 40 10 C46 30 54 30 58 46 C64 28 78 24 80 52 C92 48 98 64 98 78 C98 102 78 118 58 118 C38 118 20 102 20 70Z" fill="#C8F135" opacity="0.9"/>
    <path d="M42 92 C42 78 50 74 54 58 C58 70 64 70 66 80 C72 76 76 84 76 92 C76 104 66 112 56 112 C46 112 42 102 42 92Z" fill="#0e0e0e"/>
  </g>

  <!-- Progress arc -->
  <g transform="translate(0, 0)">
    <path d="M 720 230 A 70 70 0 1 1 860 230" fill="none" stroke="#2A2A2A" stroke-width="12" stroke-linecap="round"/>
    <path d="M 720 230 A 70 70 0 0 1 860 230" fill="none" stroke="url(#lime)" stroke-width="12" stroke-linecap="round"/>
    <text x="790" y="228" text-anchor="middle" fill="#ffffff" font-family="Segoe UI, Inter, system-ui, sans-serif" font-size="28" font-weight="800">5/5</text>
    <text x="790" y="252" text-anchor="middle" fill="#666666" font-family="Segoe UI, Inter, system-ui, sans-serif" font-size="12" font-weight="600">DAILY GOAL</text>
  </g>
</svg>