<svg xmlns="http://www.w3.org/2000/svg" viewBox="0 0 1100 230" role="img" aria-label="GrindRoom features">
  <defs>
    <linearGradient id="lime" x1="0" y1="0" x2="1" y2="1">
      <stop offset="0%" stop-color="#d4fe42"/>
      <stop offset="100%" stop-color="#8eb012"/>
    </linearGradient>
    <linearGradient id="card" x1="0" y1="0" x2="0" y2="1">
      <stop offset="0%" stop-color="#1a1a1a"/>
      <stop offset="100%" stop-color="#111"/>
    </linearGradient>
    <filter id="glow">
      <feGaussianBlur stdDeviation="4" result="b"/>
      <feMerge><feMergeNode in="b"/><feMergeNode in="SourceGraphic"/></feMerge>
    </filter>
  </defs>

  <!-- ── Card 1 · Log Workouts ── -->
  <g transform="translate(20, 15)">
    <rect width="250" height="200" rx="20" fill="url(#card)" stroke="#262626" stroke-width="1.5"/>
    <g transform="translate(125, 68)" fill="none" stroke="url(#lime)" stroke-width="2" stroke-linecap="round" stroke-linejoin="round">
      <rect x="-11" y="-14" width="22" height="28" rx="3"/>
      <path d="M-7 6h14M-5 10l3 3 6-7" stroke="#C8F135" stroke-width="2"/>
    </g>
    <text x="125" y="122" text-anchor="middle" fill="#fff" font-family="Segoe UI, Inter, system-ui, sans-serif" font-size="14" font-weight="800">Log Workouts</text>
    <text x="125" y="142" text-anchor="middle" fill="#666" font-family="Segoe UI, Inter, system-ui, sans-serif" font-size="11">10 presets · 3 levels</text>
    <rect x="77" y="162" width="96" height="5" rx="2.5" fill="#222"/>
    <rect x="77" y="162" width="64" height="5" rx="2.5" fill="url(#lime)"/>
  </g>

  <!-- ── Card 2 · Streak Engine ── -->
  <g transform="translate(285, 15)">
    <rect width="250" height="200" rx="20" fill="url(#card)" stroke="#262626" stroke-width="1.5"/>
    <!-- flame: smaller + higher so title has clear gap below -->
    <g transform="translate(125, 52) scale(0.68)" filter="url(#glow)">
      <path d="M0-20C4-11 11-9 13 1C17-3 24-5 26 9C33 6 37 16 37 28C37 44 22 56 8 56C-6 56-20 44-20 28C-20 13-12 5 0-20Z" fill="url(#lime)"/>
      <path d="M-2 32C-2 24 2 20 5 10C9 17 13 17 15 24C20 20 24 24 24 32C24 40 18 46 9 46C3 46-2 40-2 32Z" fill="#111"/>
    </g>
    <text x="125" y="130" text-anchor="middle" fill="#fff" font-family="Segoe UI, Inter, system-ui, sans-serif" font-size="14" font-weight="800">Streak Engine</text>
    <text x="125" y="150" text-anchor="middle" fill="#666" font-family="Segoe UI, Inter, system-ui, sans-serif" font-size="11">Daily consistency</text>
    <text x="125" y="180" text-anchor="middle" fill="url(#lime)" font-family="Segoe UI, Inter, system-ui, sans-serif" font-size="20" font-weight="900">12 days</text>
  </g>

  <!-- ── Card 3 · Squad Rooms (simple users) ── -->
  <g transform="translate(550, 15)">
    <rect width="250" height="200" rx="20" fill="url(#card)" stroke="#262626" stroke-width="1.5"/>
    <g transform="translate(125, 68)" fill="none" stroke-width="2.2" stroke-linecap="round">
      <!-- left member -->
      <circle cx="-14" cy="-6" r="7" stroke="#444"/>
      <path d="M-22 10 Q-14 4 -6 10" stroke="#444"/>
      <!-- right member (highlighted) -->
      <circle cx="14" cy="-6" r="7" stroke="url(#lime)"/>
      <path d="M6 10 Q14 4 22 10" stroke="url(#lime)"/>
    </g>
    <text x="125" y="122" text-anchor="middle" fill="#fff" font-family="Segoe UI, Inter, system-ui, sans-serif" font-size="14" font-weight="800">Squad Rooms</text>
    <text x="125" y="142" text-anchor="middle" fill="#666" font-family="Segoe UI, Inter, system-ui, sans-serif" font-size="11">Live leaderboards</text>
    <rect x="83" y="162" width="84" height="20" rx="10" fill="#0a0a0a" stroke="#2a2a2a"/>
    <text x="125" y="176" text-anchor="middle" fill="url(#lime)" font-family="ui-monospace, monospace" font-size="10" font-weight="700" letter-spacing="1.5">ABC123</text>
  </g>

  <!-- ── Card 4 · Realtime Sync (broadcast waves) ── -->
  <g transform="translate(815, 15)">
    <rect width="250" height="200" rx="20" fill="url(#card)" stroke="rgba(200,241,53,0.3)" stroke-width="1.5"/>
    <g transform="translate(125, 70)">
      <!-- signal dot -->
      <circle cx="0" cy="12" r="5" fill="url(#lime)">
        <animate attributeName="r" values="5;6;5" dur="2s" repeatCount="indefinite"/>
      </circle>
      <!-- outer → inner arcs -->
      <path d="M-18 8 A 18 18 0 0 1 18 8" fill="none" stroke="#333" stroke-width="2.5" stroke-linecap="round"/>
      <path d="M-13 2 A 13 13 0 0 1 13 2" fill="none" stroke="#555" stroke-width="2.5" stroke-linecap="round"/>
      <path d="M-8 -4 A 8 8 0 0 1 8 -4" fill="none" stroke="url(#lime)" stroke-width="2.5" stroke-linecap="round">
        <animate attributeName="opacity" values="0.5;1;0.5" dur="2s" repeatCount="indefinite"/>
      </path>
    </g>
    <text x="125" y="130" text-anchor="middle" fill="#fff" font-family="Segoe UI, Inter, system-ui, sans-serif" font-size="14" font-weight="800">Realtime Sync</text>
    <text x="125" y="150" text-anchor="middle" fill="#666" font-family="Segoe UI, Inter, system-ui, sans-serif" font-size="11">Powered by Convex</text>
    <text x="125" y="176" text-anchor="middle" fill="url(#lime)" font-family="Segoe UI, Inter, system-ui, sans-serif" font-size="11" font-weight="800" letter-spacing="1.5">● LIVE</text>
  </g>
</svg>